<svg version="1.1" xmlns="http://www.w3.org/2000/svg" xmlns:xlink="http://www.w3.org/1999/xlink" x="0px" y="0px" viewBox="0 0 52 64" style="enable-background:new 0 0 52 64;" xml:space="preserve">
<g id="search-document-find-magnify">
<path style="fill: rgb(255, 255, 255);" d="M15,37c0,2.592,0.907,4.974,2.412,6.856l1.731,1.731C21.025,47.093,23.407,48,26,48
		c6.065,0,11-4.935,11-11s-4.935-11-11-11S15,30.935,15,37z M35,37c0,4.962-4.037,9-9,9s-9-4.038-9-9s4.037-9,9-9S35,32.038,35,37z" id="id_139"></path>
<polygon style="fill: rgb(255, 255, 255);" points="33,21 41.586,21 33,12.414 	" id="id_140"></polygon>
<path style="fill: rgb(252, 255, 255);" d="M31,22V11H10H9.871H6c-1.654,0-3,1.346-3,3v46c0,1.654,1.346,3,3,3h34c1.654,0,3-1.346,3-3V23H32
		C31.447,23,31,22.552,31,22z M7,17h20v2H7V17z M18,21v2h-5v-2H18z M7,21h4v2H7V21z M7,25h5v2H7V25z M28,56H16v-2h12V56z M40,56H30
		v-2h10V56z M40,52h-7v-2h7V52z M40,48h-3v-2h3V48z M39,37c0,7.168-5.832,13-13,13c-2.491,0-4.812-0.717-6.792-1.936l-9.28,9.279
		c-0.585,0.585-1.353,0.877-2.121,0.877s-1.536-0.292-2.121-0.877c-0.566-0.565-0.879-1.319-0.879-2.121
		c0-0.801,0.312-1.555,0.879-2.121l9.272-9.272C13.725,41.841,13,39.506,13,37c0-7.168,5.832-13,13-13S39,29.832,39,37z" id="id_141"></path>
<path style="fill: rgb(255, 255, 255);" d="M40,13V7H10C8.696,7,7.584,7.836,7.171,9h2.7H10h22c0.023,0,0.043,0.011,0.065,0.013
		c0.087,0.006,0.171,0.022,0.253,0.05c0.033,0.011,0.065,0.02,0.096,0.034c0.106,0.049,0.207,0.11,0.292,0.195l12,12
		c0.086,0.086,0.147,0.187,0.196,0.293c0.014,0.03,0.022,0.061,0.033,0.093c0.029,0.084,0.046,0.17,0.052,0.259
		C44.989,21.96,45,21.979,45,22v36.829c1.164-0.413,2-1.525,2-2.829V14h-6C40.447,14,40,13.552,40,13z" id="id_142"></path>
<polygon style="fill: rgb(255, 255, 255);" points="42,12 45.586,12 42,8.414 	" id="id_143"></polygon>
<path style="fill: rgb(255, 255, 255);" d="M14,3c-1.304,0-2.416,0.836-2.829,2H41c0.023,0,0.043,0.011,0.065,0.013
		c0.087,0.006,0.171,0.022,0.253,0.05c0.033,0.011,0.065,0.02,0.096,0.034c0.106,0.049,0.207,0.11,0.292,0.195l7,7
		c0.086,0.086,0.147,0.187,0.196,0.293c0.014,0.03,0.022,0.061,0.033,0.093c0.029,0.084,0.046,0.17,0.052,0.259
		C48.989,12.96,49,12.979,49,13v41.829c1.164-0.413,2-1.525,2-2.829V6c0-1.654-1.346-3-3-3H14z" id="id_144"></path>
<circle style="fill:#FFFFFF;" cx="26" cy="37" r="7" id="id_145"></circle>
<path style="fill: rgb(240, 248, 250);" d="M16.153,45.463l-9.052,9.052c-0.188,0.189-0.293,0.44-0.293,0.707c0,0.268,0.104,0.519,0.293,0.706
		c0.389,0.391,1.023,0.39,1.414,0.001l9.054-9.053C17.061,46.442,16.588,45.969,16.153,45.463z" id="id_146"></path>
<path d="M47,0H13c-2.446,0-4.479,1.768-4.908,4.092c-2.028,0.375-3.625,1.972-4,4C1.768,8.521,0,10.554,0,13v46
		c0,2.757,2.243,5,5,5h34c2.446,0,4.479-1.768,4.908-4.092c2.028-0.375,3.625-1.972,4-4C50.232,55.479,52,53.446,52,51V5
		C52,2.243,49.757,0,47,0z M39,62H5c-1.654,0-3-1.346-3-3V13c0-1.654,1.346-3,3-3h3.871H9h21v11c0,0.552,0.447,1,1,1h11v37
		C42,60.654,40.654,62,39,62z M32,11.414L40.586,20H32V11.414z M44,57.829V21c0-0.021-0.011-0.04-0.012-0.061
		c-0.006-0.089-0.023-0.175-0.052-0.259c-0.011-0.032-0.019-0.062-0.033-0.093c-0.049-0.106-0.11-0.207-0.196-0.293l-12-12
		c-0.086-0.086-0.186-0.147-0.292-0.195c-0.031-0.015-0.063-0.023-0.096-0.034c-0.083-0.028-0.166-0.045-0.253-0.05
		C31.043,8.011,31.023,8,31,8H9H8.871h-2.7C6.584,6.836,7.696,6,9,6h30v6c0,0.552,0.447,1,1,1h6v42
		C46,56.304,45.164,57.416,44,57.829z M41,7.414L44.586,11H41V7.414z M50,51c0,1.304-0.836,2.416-2,2.829V12
		c0-0.021-0.011-0.04-0.012-0.061c-0.006-0.089-0.023-0.175-0.052-0.259c-0.011-0.032-0.019-0.062-0.033-0.093
		c-0.049-0.106-0.11-0.207-0.196-0.293l-7-7c-0.086-0.086-0.186-0.147-0.292-0.195c-0.031-0.015-0.063-0.023-0.096-0.034
		c-0.083-0.028-0.166-0.045-0.253-0.05C40.043,4.011,40.023,4,40,4H10.171C10.584,2.836,11.696,2,13,2h34c1.654,0,3,1.346,3,3V51z" id="id_147"></path>
<rect x="6" y="16" width="20" height="2" id="id_148"></rect>
<path d="M25,49c7.168,0,13-5.832,13-13s-5.832-13-13-13s-13,5.832-13,13c0,2.506,0.725,4.841,1.959,6.828l-9.272,9.272
		c-0.566,0.566-0.879,1.32-0.879,2.121c0,0.802,0.312,1.556,0.879,2.121c0.585,0.585,1.353,0.877,2.121,0.877
		s1.536-0.292,2.121-0.877l9.28-9.279C20.188,48.283,22.509,49,25,49z M25,25c6.065,0,11,4.935,11,11s-4.935,11-11,11
		c-2.593,0-4.975-0.907-6.857-2.413l-1.731-1.731C14.907,40.974,14,38.592,14,36C14,29.935,18.935,25,25,25z M7.515,54.929
		c-0.391,0.389-1.025,0.39-1.414-0.001c-0.189-0.188-0.293-0.438-0.293-0.706c0-0.267,0.104-0.518,0.293-0.707l9.052-9.052
		c0.436,0.506,0.908,0.979,1.416,1.413L7.515,54.929z" id="id_149"></path>
<path d="M25,45c4.963,0,9-4.038,9-9s-4.037-9-9-9s-9,4.038-9,9S20.037,45,25,45z M25,29c3.859,0,7,3.14,7,7s-3.141,7-7,7
		s-7-3.14-7-7S21.141,29,25,29z" id="id_150"></path>
<rect x="6" y="20" width="4" height="2" id="id_151"></rect>
<rect x="12" y="20" width="5" height="2" id="id_152"></rect>
<rect x="32" y="49" width="7" height="2" id="id_153"></rect>
<rect x="36" y="45" width="3" height="2" id="id_154"></rect>
<rect x="15" y="53" width="12" height="2" id="id_155"></rect>
<rect x="29" y="53" width="10" height="2" id="id_156"></rect>
<rect x="6" y="24" width="5" height="2" id="id_157"></rect>
</g>
<g id="Layer_1">
</g>
</svg>